# xmcd
#
# Track frame offsets:
#	150
#	14060
#	31031
#	44147
#	56541
#	69082
#	81917
#	95567
#	105379
#	117563
#	130690
#	144838
#	156285
#	168018
#	183787
#	195575
#	207341
#	220657
#	233051
#	244791
#	256642
#	268077
#
# Disc length: 3764 seconds
# Revision: 0
# Processed by: cddbd v1.5.2PL0 Copyright (c) Steve Scherf et al.
# Submitted via: dBpowerAMP V12.0
#
DISCID=270eb216
DTITLE=ZZ Hill - That's it - The Complete Kent Recordings 1964-1968 - Disc 2
DYEAR=2018
DGENRE=Soul
TTITLE0=When Something is Wrong With my Baby
TTITLE1=What am I Living For
TTITLE2=Nothing Takes The Place of You
TTITLE3=Knock on Wood
TTITLE4=Steal Away
TTITLE5=You're Gonna Make me Cry
TTITLE6=You Send me
TTITLE7=Midnight Hour
TTITLE8=When a Man Loves a Woman
TTITLE9=Make me Yours
TTITLE10=Nothing Can Change The Love I Have For You
TTITLE11=Greatest Love
TTITLE12=You Won't Hurt no More
TTITLE13=You've Got me Chained to Your Love
TTITLE14=I'm Gonna Love You
TTITLE15=Please Take me Back
TTITLE16=My Girl Has Gone Away
TTITLE17=I Need Someone (to Love Me) (With Strings)
TTITLE18=You Don't Love me (With Strings)
TTITLE19=If I Could do it All Over (With Strings)
TTITLE20=You Won't Hurt no More (With Strings)
TTITLE21=Nothing Can Change This Love (I Have For You) (With Strings)
EXTD=
EXTT0=
EXTT1=
EXTT2=
EXTT3=
EXTT4=
EXTT5=
EXTT6=
EXTT7=
EXTT8=
EXTT9=
EXTT10=
EXTT11=
EXTT12=
EXTT13=
EXTT14=
EXTT15=
EXTT16=
EXTT17=
EXTT18=
EXTT19=
EXTT20=
EXTT21=
PLAYORDER=
